<svg width="126" height="117" viewBox="0 0 126 117" fill="none" xmlns="http://www.w3.org/2000/svg">
<path d="M78.531 56.396C79.08 56.823 79.324 57.25 79.385 57.738C79.446 58.409 79.385 58.47 78.897 58.165C78.287 57.738 76.701 57.189 76.701 57.189L74.444 57.25C73.224 57.311 72.004 57.372 71.76 57.494C71.272 57.616 71.272 58.165 70.906 68.413C70.723 74.391 70.601 79.515 70.662 79.881C70.845 80.491 70.845 80.491 71.089 80.003C71.211 79.698 71.272 79.881 71.211 80.674C71.211 81.345 71.333 82.87 71.455 84.212C71.882 88.726 71.882 88.604 71.638 88.177C71.516 87.994 71.394 87.567 71.394 87.262C71.455 87.018 71.333 86.896 71.272 86.957C70.967 87.262 71.699 91.776 72.797 96.595C73.651 100.194 73.895 102.146 73.651 102.634C73.407 103 71.638 103.671 71.333 103.427C71.272 103.366 71.272 103.122 71.333 102.939C71.394 102.756 71.089 101.841 70.662 100.865C69.503 98.425 67.429 91.227 67.124 88.726C66.331 82.199 66.209 76.099 66.575 62.862C66.636 60.422 66.697 58.47 66.697 58.47C66.636 58.409 65.294 58.836 63.586 59.385C59.743 60.605 53.216 63.106 48.092 65.424L44.127 67.254L43.639 68.901C43.395 69.755 42.114 74.147 40.772 78.6C39.491 83.114 37.844 89.092 37.173 91.959C36.502 94.826 35.77 97.876 35.526 98.73C35.282 99.584 35.099 100.682 35.038 101.17C35.038 101.963 34.672 103.671 32.781 112.577C32.415 114.407 31.927 115.932 31.744 116.176C31.256 116.664 29.548 116.603 29.182 116.054C29.06 115.871 28.633 115.749 28.267 115.749C27.84 115.688 27.474 115.566 27.413 115.444C27.352 115.261 26.925 115.139 26.559 115.139C25.644 115.078 25.461 114.651 25.278 111.54C25.095 108.49 24.485 105.074 23.814 103.061C23.326 101.719 23.326 101.536 23.692 101.231C23.997 101.048 23.936 100.743 23.204 99.279C21.069 95.07 18.08 91.837 15.457 90.8C14.176 90.251 11.736 90.007 6.734 90.007C3.745 89.946 2.281 89.58 1.427 88.665C0.878 88.055 0.756 88.055 0.695 88.543C0.695 88.787 0.573 88.97 0.39 88.97C0.329 88.909 0.207 88.726 0.207 88.543C0.207 88.299 0.329 88.177 0.451 88.177C0.573 88.177 0.756 88.055 0.756 87.872C0.756 87.323 2.403 85.615 4.294 84.273C6.856 82.382 10.272 80.491 16.799 77.197C19.788 75.733 23.021 74.086 23.875 73.659C29.975 70.487 37.173 66.888 40.711 65.18C41.138 64.997 41.504 64.692 41.565 64.57C41.626 64.387 41.992 63.228 42.358 62.008C42.846 60.788 43.212 59.507 43.334 59.141C43.395 58.836 44.005 57.006 44.737 55.176C45.408 53.346 46.201 51.15 46.506 50.296C46.994 48.832 48.458 45.172 50.105 41.085C50.593 39.926 51.264 38.218 51.63 37.303C53.277 33.277 53.765 32.118 54.009 31.63C54.131 31.386 54.497 30.471 54.863 29.617C55.9 26.994 57.303 23.578 57.669 23.09C57.852 22.785 58.218 22.114 58.462 21.565C60.109 17.661 63.159 12.415 64.867 10.28C65.904 9.121 66.331 8.38899 65.782 8.816C65.599 8.99899 65.355 9.121 65.233 9.121C65.111 9.121 65.172 8.938 65.477 8.755C65.721 8.57199 66.209 8.45 66.514 8.45C66.758 8.45 67.124 8.328 67.307 8.08399C67.734 7.65699 69.198 7.718 69.564 8.206C69.686 8.38899 69.93 8.57199 70.113 8.57199C70.601 8.633 71.028 9.426 71.577 11.134C72.37 13.879 72.492 16.38 72.248 25.042C72.126 29.556 71.882 37.425 71.76 42.549C71.577 47.612 71.455 52.431 71.394 53.285L71.333 54.749L72.858 54.688C74.566 54.688 76.945 55.054 77.372 55.481C77.555 55.664 78.043 56.091 78.531 56.396ZM32.537 96.29C32.781 94.765 36.746 79.881 39.003 72.561C39.491 70.853 39.857 69.45 39.735 69.45C39.674 69.45 38.271 70.121 36.685 71.036C35.099 71.951 32.903 73.171 31.683 73.72C30.524 74.33 28.389 75.428 26.925 76.16C25.522 76.953 23.57 77.868 22.716 78.234C19.239 79.698 7.954 86.347 6.368 87.872C6.246 87.933 7.344 87.933 8.808 87.933C15.823 87.75 21.679 91.166 25.583 97.693C27.047 100.194 27.962 102.268 28.45 104.525C28.633 105.257 28.816 105.989 28.938 106.111C28.999 106.294 30.585 100.255 31.5 96.229C31.805 94.948 32.171 95.314 31.927 96.656C31.744 97.571 31.744 97.693 32.11 97.388C32.293 97.205 32.537 96.717 32.537 96.29ZM40.65 73.293C40.711 72.866 40.528 73.293 40.101 74.33C39.735 75.367 39.43 76.343 39.43 76.526C39.43 76.892 40.406 74.269 40.65 73.293ZM41.504 70.548C41.931 69.511 42.236 68.535 42.175 68.413C42.236 67.864 41.199 70.487 41.016 71.463C40.894 72.073 41.077 71.768 41.504 70.548ZM69.137 49.137C68.893 54.993 68.893 55.115 69.381 54.993C69.686 54.932 69.991 54.932 70.113 54.932C70.235 54.932 70.174 54.749 69.93 54.566C69.503 54.2 69.503 53.712 69.625 49.198C69.686 46.453 69.625 43.952 69.503 43.708C69.442 43.403 69.259 45.599 69.137 49.137ZM44.188 62.862C44.188 62.557 44.737 60.971 45.347 59.263C45.957 57.616 47.055 54.505 47.848 52.309C48.641 50.174 49.495 47.856 49.8 47.124C50.105 46.453 50.776 44.745 51.264 43.342C51.752 41.939 52.911 39.072 53.887 36.937C54.802 34.741 56.144 31.691 56.815 30.105C57.486 28.519 58.523 26.201 59.072 25.042C59.621 23.883 60.17 22.541 60.353 22.053C60.536 21.565 60.78 21.016 61.024 20.833C61.207 20.65 61.39 20.345 61.39 20.101C61.39 19.674 62.488 17.539 62.976 16.99C63.464 16.38 65.66 12.476 65.416 12.598C64.989 12.842 62.488 16.929 61.39 19.186C60.78 20.406 59.987 21.992 59.621 22.724C59.316 23.456 59.011 24.127 59.011 24.249C59.011 24.31 58.523 25.286 57.974 26.384C56.815 28.824 56.632 29.251 55.412 32.24C54.924 33.46 54.009 35.656 53.399 36.998C52.85 38.401 51.874 40.78 51.264 42.305C50.715 43.83 49.8 46.087 49.373 47.246C48.519 49.381 47.909 50.967 46.811 53.956C46.567 54.81 45.774 57.067 45.042 59.019C44.371 60.971 43.7 62.862 43.578 63.289C43.395 63.96 43.456 64.021 43.761 63.716C44.005 63.533 44.188 63.167 44.188 62.862ZM67.612 41.878C67.734 40.048 67.917 37.913 68.283 31.996C68.649 26.323 68.771 18.21 68.527 16.319C68.466 15.587 68.344 15.526 68.1 15.709C67.795 15.892 67.734 15.648 67.673 14.245C67.612 13.33 67.49 12.598 67.368 12.598C67.246 12.598 67.246 13.147 67.368 13.879C67.429 14.611 67.429 15.709 67.368 16.258C67.246 17.234 67.246 17.112 67.002 15.282L66.697 13.208L65.172 15.831C64.318 17.295 63.037 19.613 62.305 20.955C61.085 23.395 60.597 24.493 57.547 31.569C54.985 37.364 51.874 45.477 49.068 53.163C47.482 57.555 46.018 61.52 45.835 61.947C45.591 62.374 45.53 62.74 45.652 62.74C45.774 62.801 47.482 62.069 49.556 61.154C55.229 58.775 59.926 57.128 63.647 56.213L67.063 55.42L67.124 51.211C67.185 48.832 67.185 46.27 67.124 45.416C67.063 44.501 67.124 43.952 67.246 44.013C67.429 44.013 67.551 43.159 67.612 41.878ZM71.211 96.107C70.235 93.179 69.076 84.7 69.564 83.724C69.808 83.297 69.686 77.258 69.442 77.258C69.381 77.258 69.442 74.879 69.564 71.951C69.808 67.681 69.808 67.193 69.564 69.816C69.32 72.805 69.259 72.927 69.137 71.585C69.015 70.792 69.076 67.864 69.137 65.058C69.259 62.191 69.32 59.812 69.32 59.629C69.198 59.08 69.381 58.226 69.564 58.226C69.686 58.226 69.869 58.531 69.869 58.836C69.93 59.263 69.991 59.202 70.052 58.653C70.113 57.921 70.052 57.799 69.503 57.921L68.893 57.982L68.588 64.204C68.222 72.744 68.283 79.088 68.771 83.419C68.893 84.761 69.076 86.408 69.137 87.018C69.381 90.19 70.479 95.07 71.333 97.205C72.004 98.913 71.943 98.12 71.211 96.107ZM106.579 73.293C106.518 72.439 106.518 72.073 106.579 72.439C106.64 72.805 106.701 73.476 106.701 73.964C106.701 74.452 106.64 74.147 106.579 73.293ZM109.568 85.615C109.69 85.554 109.751 85.554 109.812 85.737C109.812 86.164 109.446 86.042 109.141 85.554C108.836 85.005 108.775 84.334 109.019 84.273C109.141 84.273 109.202 84.395 109.202 84.578C109.263 85.371 109.385 85.798 109.568 85.615ZM109.019 83.663C109.141 83.785 109.141 83.907 108.958 83.907C108.775 83.968 108.531 83.541 108.348 82.931C107.616 80.186 107.433 79.454 107.372 78.905C107.372 78.539 107.25 78.234 107.128 78.173C106.762 77.929 106.762 76.77 107.067 76.282C107.311 75.916 107.372 75.977 107.433 76.831C107.494 77.99 107.616 78.722 108.043 80.003C108.226 80.491 108.47 81.406 108.592 82.138C108.714 82.809 108.897 83.48 109.019 83.663ZM110.91 82.382C110.91 82.626 110.605 81.711 110.239 80.308C109.934 78.844 109.69 77.624 109.751 77.563C109.873 77.38 110.91 81.772 110.91 82.382ZM96.2696 28.641C96.2696 28.763 96.2086 29.129 96.0256 29.556L95.6596 30.227L95.7206 29.556C95.8426 28.763 96.0866 28.336 96.2696 28.641ZM122.378 0.763993C123.72 1.008 123.903 1.37399 124.513 4.05799C125.062 6.68099 125.367 10.829 125.367 14.794C125.306 16.624 125.306 19.247 125.306 20.65C125.306 21.992 125.184 24.676 125.062 26.506C124.635 33.277 124.513 35.107 124.513 36.144C124.452 37.974 124.391 38.645 124.33 38.828C124.269 38.95 124.208 38.767 124.147 38.401C124.086 37.547 123.964 37.852 123.903 39.072C123.903 39.865 123.903 39.987 124.025 39.743C124.208 39.438 124.208 39.56 124.208 40.231C124.147 40.719 124.025 41.329 123.842 41.512C123.659 41.756 123.659 42.061 123.781 42.488C123.964 43.22 123.842 46.27 123.598 46.697C123.415 46.941 123.415 46.453 123.598 44.745C123.659 44.196 123.598 44.135 123.476 44.562C123.11 45.416 123.11 50.967 123.415 51.394C123.659 51.699 122.805 62.13 122.378 63.289C122.256 63.716 122.195 63.655 122.134 63.106L122.073 62.435L121.951 63.106L121.829 63.777L121.768 63.106C121.646 62.13 121.89 59.751 122.134 59.751C122.256 59.751 122.317 59.995 122.256 60.3C122.195 60.727 122.195 60.788 122.317 60.483C122.5 59.995 122.683 56.762 122.561 56.64C122.5 56.579 122.378 57.189 122.317 57.982C122.256 58.775 122.134 59.446 122.134 59.385C122.012 59.263 122.5 51.638 122.866 47.551C122.988 46.27 123.11 44.745 123.11 44.257C123.11 43.769 123.171 42.854 123.232 42.305C123.293 41.756 123.476 40.17 123.598 38.889C123.72 37.608 123.964 36.388 124.086 36.266C124.269 36.144 124.33 35.778 124.33 35.473C124.269 34.985 124.208 34.985 124.086 35.29C123.964 35.534 123.903 35.595 123.903 35.412C123.903 35.229 123.964 35.046 124.025 34.924C124.147 34.863 124.147 34.558 124.086 34.314C124.025 34.07 124.025 32.179 124.147 30.105C124.269 27.97 124.452 24.981 124.513 23.395C124.574 21.748 124.696 20.223 124.818 19.918C124.94 19.552 124.94 19.247 124.879 19.125C124.818 19.003 124.757 18.027 124.818 16.99C124.879 13.391 124.696 8.26699 124.391 7.65699C124.147 7.16899 124.147 7.16899 124.33 7.901C124.391 8.38899 124.391 8.816 124.33 8.87699C124.208 8.99899 124.147 9.97499 124.208 11.073C124.208 12.171 124.147 13.269 124.025 13.513C123.964 13.757 123.903 13.513 123.964 12.842C124.025 11.622 123.598 6.07099 123.354 5.827C123.049 5.522 122.988 6.132 122.988 9.48699C122.988 11.378 122.988 13.879 122.927 15.038C122.866 16.197 122.744 18.149 122.744 19.369C122.683 20.589 122.622 22.419 122.561 23.395C122.439 24.432 122.378 26.262 122.317 27.482C122.256 28.702 122.073 31.447 121.951 33.643C121.402 41.207 120.487 52.797 120.243 55.176C120.121 56.457 120.06 57.86 119.999 58.348C119.938 59.812 119.694 62.252 119.633 61.825C119.572 61.52 119.511 61.398 119.389 61.52C119.328 61.581 119.328 62.252 119.389 62.923C119.511 63.838 119.45 64.265 119.267 64.387C119.084 64.509 119.023 64.753 119.145 65.18C119.206 65.485 119.206 65.79 119.145 65.729C118.962 65.607 118.779 67.437 118.596 70.304C118.535 70.914 118.535 70.914 118.718 70.426C118.84 70.06 118.84 70.121 118.84 70.914C118.779 71.646 118.84 71.89 118.962 71.707C119.145 71.402 119.511 68.352 119.694 65.363C119.877 62.74 119.877 62.679 120.243 63.35C120.548 63.96 120.67 66.827 120.426 68.169C120.365 68.535 120.365 68.596 120.548 68.413C120.609 68.23 120.853 67.193 120.975 66.156C121.158 65.119 121.341 64.265 121.463 64.387C121.585 64.448 121.646 64.326 121.646 64.204C121.646 63.96 121.707 63.96 121.951 64.143C122.195 64.387 122.256 64.57 122.134 64.997C122.012 65.302 121.951 65.546 122.073 65.607C122.134 65.729 122.073 66.034 122.012 66.4C121.89 67.071 121.768 69.633 121.768 71.829C121.768 72.439 121.707 74.025 121.585 75.367C121.463 76.77 121.28 78.783 121.219 79.881C121.158 80.918 120.914 82.565 120.67 83.419C120.487 84.334 120.243 85.676 120.182 86.469C119.755 89.458 118.413 92.508 117.132 93.362C116.339 93.85 115.302 93.972 114.448 93.606C114.021 93.484 113.472 93.362 113.167 93.423C112.374 93.545 109.873 91.715 109.263 90.556C108.592 89.336 107.738 86.957 107.433 85.371C107.311 84.7 107.067 83.907 106.884 83.663C106.762 83.358 106.64 83.053 106.579 82.931C106.579 82.748 106.457 82.382 106.396 82.016C105.908 80.491 104.81 75.306 104.261 72.012C102.797 63.533 101.577 45.233 101.577 31.691C101.516 25.713 101.394 20.711 101.211 21.016C101.15 21.138 101.089 21.626 101.089 22.114C101.089 22.602 100.906 21.565 100.784 19.796C100.601 17.905 100.357 16.502 100.235 16.502C100.174 16.502 99.8076 17.6 99.4416 18.881C99.0756 20.162 98.5266 22.053 98.2826 23.029C97.9776 23.944 97.5506 25.713 97.3676 26.872C97.1236 28.092 96.7576 29.434 96.5746 29.922C96.3306 30.471 96.1476 30.959 96.1476 31.081C96.2086 31.203 96.0866 31.325 96.0256 31.325C95.6596 31.386 95.7206 31.02 96.2086 29.922C96.4526 29.373 96.5746 28.397 96.5746 27.482C96.5746 25.286 97.0626 22.846 97.9166 20.04C98.8316 17.234 98.8926 16.502 98.1606 18.515C97.6116 19.857 96.0866 25.53 95.4766 28.458C95.2326 29.312 94.8666 31.081 94.5616 32.301C93.3416 37.181 90.4746 53.346 90.5966 54.383C90.6576 54.627 90.7186 54.444 90.8406 54.078C90.9626 53.712 91.1456 53.224 91.2066 52.98C91.4506 52.553 91.8776 49.991 91.8166 49.442C91.8166 49.198 91.8776 48.954 92.0606 48.832C92.1826 48.771 92.3656 48.466 92.3656 48.161C92.4266 47.917 92.3656 47.734 92.2436 47.795C91.9996 48.1 92.0606 47.917 92.4266 46.453C92.6096 45.721 92.7316 44.867 92.7316 44.501C92.7316 44.135 92.9146 43.159 93.1586 42.366C93.3416 41.573 93.5246 40.475 93.5246 39.926C93.5856 39.377 93.7076 38.95 93.7686 39.011C94.0126 39.133 94.1956 38.34 94.0126 38.157C93.9516 38.096 93.9516 38.218 93.9516 38.34C93.9516 38.584 93.9516 38.645 93.8296 38.584C93.7686 38.523 94.0126 37.242 94.3176 35.839C94.6836 34.375 95.0496 32.606 95.1716 31.935C95.2936 31.203 95.4766 30.654 95.5986 30.654C95.6596 30.654 95.6596 30.959 95.5376 31.386C95.4766 31.874 95.4766 32.545 95.5376 32.85C95.6596 33.277 95.6596 33.46 95.4766 33.399C95.3546 33.338 95.2936 33.704 95.2936 34.253C95.4156 35.473 94.9276 37.425 94.6836 36.998C94.5006 36.754 94.4396 36.815 94.3786 37.12C94.3176 37.364 94.3786 37.73 94.4396 37.913C94.5006 38.096 94.5006 38.584 94.3786 39.011C94.2566 39.438 94.0736 40.17 94.0736 40.658C93.9516 42.305 93.2806 45.477 93.0366 45.355C92.9146 45.233 92.9146 45.355 92.9756 45.599C93.2196 46.148 92.6706 49.259 92.3656 49.076C92.2436 49.015 92.2436 49.137 92.3656 49.32C92.4266 49.564 92.3656 49.747 92.2436 49.747C92.1216 49.808 92.0606 49.991 92.1826 50.296C92.2436 50.601 92.1826 51.821 92.0606 53.102C91.7556 55.42 91.4506 56.396 91.5116 54.81C91.5726 53.956 91.5726 53.956 91.3896 54.566C91.3286 54.932 91.3286 55.542 91.4506 55.969C91.5726 56.457 91.4506 57.616 91.1456 59.385C90.8406 60.849 90.6576 62.496 90.6576 62.984C90.5966 63.472 90.4746 64.814 90.2916 65.973C90.1086 67.071 89.9256 68.535 89.9256 69.206C89.9256 69.938 89.8036 71.158 89.7426 72.012C89.3156 75.489 88.5836 87.811 88.4006 94.033C88.2786 97.571 88.4006 105.318 88.5836 107.819C88.7666 109.466 88.7056 109.771 88.3396 110.198C87.8516 110.686 87.9126 110.686 86.8756 110.381C86.3876 110.198 85.8386 110.137 85.6556 110.259C85.3506 110.381 85.0456 110.259 84.6796 109.832C84.4356 109.527 84.0696 109.283 83.8866 109.283C83.4596 109.344 83.3376 108.917 83.5206 107.453C83.6426 106.66 83.6426 105.928 83.5816 105.867C83.4596 105.684 83.4596 100.926 83.6426 97.205C83.7036 95.497 83.7646 94.033 83.7646 93.911C83.7036 93.789 83.8866 93.728 84.0086 93.789C84.4966 93.972 84.6796 92.569 84.7406 87.628C84.8016 84.456 85.0456 81.467 85.5946 75.977C85.7776 74.513 86.0216 71.951 86.1436 70.304C86.3266 68.657 86.6316 65.546 86.9366 63.472C87.1806 61.337 87.4246 59.202 87.4856 58.592C87.5466 57.982 87.7296 56.457 87.9126 55.115C88.0956 53.834 88.4006 51.821 88.5226 50.723C88.6446 49.625 88.8886 48.771 89.0106 48.832C89.1326 48.893 89.0716 48.832 89.0106 48.649C88.8886 48.527 89.0106 47.551 89.1936 46.575C89.3766 45.599 89.6206 44.318 89.6816 43.769C89.8036 43.22 89.9866 42.183 90.1696 41.512C90.3526 40.78 90.4746 40.17 90.4746 40.048C90.4136 39.926 90.4746 39.865 90.5966 39.865C90.7186 39.804 90.7796 39.743 90.7186 39.621C90.5356 39.377 91.2676 35.351 92.0606 32.118C92.4266 30.837 92.8536 28.885 93.0366 27.787C93.2806 26.628 93.6466 25.103 93.8906 24.432C94.1346 23.761 94.3176 22.968 94.3786 22.602C94.3786 22.053 94.9886 20.04 96.2696 16.014C97.0626 13.574 98.2216 11.5 99.2586 10.707C100.174 10.036 100.235 9.97499 100.479 10.402C100.723 10.707 100.845 10.768 101.028 10.524C101.272 10.097 101.76 10.28 101.821 10.707C101.821 11.012 102.004 11.012 102.37 10.89C102.858 10.707 103.102 10.829 103.895 11.744C104.749 12.659 104.871 12.964 104.871 13.818C104.932 14.306 105.054 15.282 105.176 15.953C105.359 16.685 105.542 19.613 105.725 22.785C105.847 25.896 105.969 29.007 106.03 29.8C106.213 31.386 106.152 37.852 106.03 38.218C105.969 38.401 105.847 38.279 105.725 38.035C105.603 37.73 105.603 38.401 105.725 39.743C105.786 40.902 105.908 43.769 105.969 46.087C105.969 48.344 106.03 51.028 106.152 52.004C106.335 53.773 106.335 53.773 106.274 51.211C106.213 46.575 106.274 45.904 106.457 46.026C106.579 46.087 106.701 47.185 106.762 48.527C106.823 49.808 106.945 52.675 107.067 54.871C107.189 57.067 107.311 59.873 107.372 61.093C107.372 62.923 107.372 63.167 107.189 62.435C106.884 61.276 107.799 69.877 108.348 73.293C108.653 75.245 108.592 74.574 108.165 70.731C107.921 67.925 107.677 65.668 107.799 65.79C107.982 65.973 108.653 70.304 109.385 75.794C109.751 78.844 110.117 81.162 110.422 82.016C110.666 82.748 110.91 83.663 110.971 84.029C111.215 85.188 112.008 87.567 112.252 87.994C112.435 88.299 112.435 88.238 112.313 87.628C112.13 86.774 112.435 87.201 112.74 88.177C112.923 88.604 112.862 88.726 112.74 88.604C112.374 88.421 112.496 88.909 112.923 89.763C113.533 90.983 114.143 90.495 114.936 88.238C115.241 87.384 115.546 86.53 115.668 86.286C116.217 85.249 117.132 78.6 117.681 71.89C117.925 69.389 118.169 66.156 118.352 64.631C118.474 63.106 118.657 61.581 118.657 61.215C118.84 58.47 119.328 52.065 119.572 49.137C119.999 44.318 120.365 39.682 120.487 37.486C120.548 36.449 120.67 34.68 120.792 33.521C120.853 32.362 121.036 29.495 121.158 27.116C121.951 12.537 122.012 8.45 121.646 4.17999L121.402 1.98399L121.341 4.05799L121.28 6.132L121.097 4.17999C120.975 3.14299 120.731 1.923 120.609 1.435C120.243 0.580992 120.426 0.0319949 120.792 0.763993C120.975 1.008 121.097 1.06899 121.158 0.885998C121.219 0.641994 121.585 0.641994 122.378 0.763993ZM93.0366 44.501C92.9146 44.501 92.8536 44.623 92.9756 44.745C93.0366 44.867 93.1586 44.989 93.2196 44.989C93.2196 44.928 93.2806 44.867 93.2806 44.684C93.2196 44.562 93.1586 44.44 93.0366 44.501ZM92.7316 45.965C92.6706 46.026 92.6096 46.27 92.6096 46.514C92.6706 47.002 92.7316 46.941 92.8536 46.331C92.8536 46.026 92.8536 45.843 92.7316 45.965ZM91.8166 51.638C91.6946 51.882 91.6336 52.248 91.6946 52.431C91.7556 52.858 91.9996 51.943 91.9996 51.516C91.9386 51.333 91.8776 51.394 91.8166 51.638ZM91.0846 42C90.9626 42.427 90.9016 42.976 90.9016 43.159C90.9016 43.403 91.0236 43.159 91.1456 42.61C91.2676 42.122 91.3286 41.573 91.3286 41.451C91.2676 41.268 91.2066 41.512 91.0846 42ZM85.9606 88.116C86.0216 89.214 86.2656 87.323 86.2046 85.798V84.212L86.0216 85.92C85.9606 86.835 85.8996 87.872 85.9606 88.116ZM86.7536 77.075C86.7536 76.892 86.7536 76.587 86.6926 76.404C86.6316 76.221 86.5706 76.404 86.6316 76.709C86.6316 77.075 86.6926 77.258 86.7536 77.075ZM86.8146 75.733C86.8756 75.55 86.8146 75.245 86.8146 75.123C86.6926 74.94 86.6926 75.062 86.6926 75.428C86.7536 75.794 86.8146 75.916 86.8146 75.733ZM86.9366 74.391C86.9976 74.208 86.9366 73.964 86.8756 73.781C86.8146 73.598 86.7536 73.781 86.8146 74.147C86.8146 74.452 86.8756 74.574 86.9366 74.391ZM87.1196 72.134C87.2416 71.402 87.3026 70.609 87.2416 70.426C87.2416 70.182 87.1196 70.548 86.9976 71.219C86.9366 71.89 86.8756 72.683 86.8756 72.927C86.9366 73.232 86.9976 72.866 87.1196 72.134ZM87.1806 69.633C87.3026 70.426 87.4246 69.572 87.6686 66.827C88.2176 60.788 89.6206 50.967 90.4746 46.697C90.7186 45.355 90.9626 44.074 90.9626 43.891C90.9016 43.342 89.5596 49.442 89.3766 50.906C89.3156 51.699 89.1936 52.919 89.0106 53.529C88.5836 56.396 87.1196 68.779 87.1806 69.633ZM88.6446 62.313C88.7056 62.618 88.7056 62.679 88.7666 62.496C88.8276 62.252 88.7666 62.069 88.7056 62.008C88.6446 61.886 88.6446 62.069 88.6446 62.313ZM88.5836 64.021C88.6446 63.777 88.7056 63.411 88.6446 63.228C88.6446 62.984 88.5836 63.045 88.5226 63.35C88.3396 64.082 88.3396 64.509 88.5836 64.021ZM87.9736 71.219C88.0346 70.426 88.0346 69.755 87.9736 69.694C87.9126 69.633 87.7906 70.243 87.6686 71.158C87.6076 72.012 87.5466 72.744 87.6686 72.683C87.7296 72.683 87.8516 72.012 87.9736 71.219ZM88.4006 65.973C88.4616 65.729 88.4006 65.607 88.2786 65.729C88.2176 65.851 88.1566 66.034 88.1566 66.156C88.1566 66.522 88.2786 66.461 88.4006 65.973ZM88.2786 65.119C88.2786 65.241 88.3396 65.302 88.4616 65.18C88.5836 65.119 88.6446 64.936 88.6446 64.936C88.6446 64.814 88.5226 64.814 88.4006 64.814C88.2786 64.814 88.2176 64.936 88.2786 65.119ZM88.7666 71.158C88.8886 69.877 88.9496 68.779 88.8886 68.718C88.7666 68.596 88.4006 72.195 88.5226 72.927C88.5836 73.232 88.6446 72.439 88.7666 71.158ZM89.4376 63.899C89.5596 63.106 89.5596 62.435 89.5596 62.374C89.4986 62.313 89.3766 62.923 89.2546 63.716C88.9496 66.095 88.9496 66.583 89.1936 66.4C89.2546 66.339 89.3766 66.034 89.3156 65.79C89.3156 65.546 89.3766 64.692 89.4376 63.899ZM90.2916 57.25C90.3526 56.152 90.3526 56.152 90.1086 57.616C89.6816 59.934 89.6816 60.849 89.9866 59.507C90.1696 58.958 90.2916 57.921 90.2916 57.25ZM90.5356 50.845C90.6576 50.601 90.6576 50.479 90.5356 50.479C90.2916 50.54 89.9256 52.309 89.3766 56.64C89.0106 59.385 88.8886 60.971 89.2546 58.836C89.3156 58.226 89.4986 57.311 89.6816 56.823C89.8646 55.908 90.0476 54.749 90.0476 53.773C90.0476 53.468 90.1696 52.797 90.3526 52.37C90.4746 51.882 90.5356 51.455 90.4746 51.333C90.4136 51.272 90.4136 51.089 90.5356 50.845ZM91.0236 48.1C91.5116 46.148 91.6336 45.172 91.4506 45.172C91.3286 45.172 91.2066 45.538 91.2066 45.904C91.1456 46.331 90.9626 47.185 90.8406 47.795C90.6576 48.405 90.5966 49.137 90.6576 49.32C90.8406 49.747 91.0846 49.808 90.9016 49.32C90.9016 49.198 90.9016 48.649 91.0236 48.1ZM91.5726 44.684C91.6336 44.501 91.5726 44.318 91.5116 44.196C91.3896 44.135 91.3896 44.318 91.4506 44.562C91.4506 44.867 91.5116 44.928 91.5726 44.684ZM91.8166 43.22C91.8776 42.732 91.9386 42.366 91.8776 42.305C91.7556 42.122 91.6946 42.366 91.6336 43.22L91.5726 44.013L91.8166 43.22ZM91.5726 39.194C91.6336 39.56 92.1826 37.608 92.1826 37.181C92.1826 37.059 91.9996 37.364 91.8776 37.852C91.6946 38.401 91.5726 39.011 91.5726 39.194ZM92.7926 37.974C92.9756 37.669 93.0976 37.364 92.9756 37.303C92.9146 37.242 92.7926 37.425 92.6706 37.791C92.4876 38.401 92.4876 38.401 92.7926 37.974ZM92.8536 34.07C92.9756 33.704 93.0976 33.277 93.0976 33.155C93.0366 33.033 92.9756 33.216 92.8536 33.582C92.6706 33.948 92.6096 34.375 92.6096 34.497C92.6096 34.68 92.7316 34.436 92.8536 34.07ZM93.7076 33.887C93.8296 33.582 93.8906 33.155 93.8296 32.911C93.8296 32.606 93.7686 32.606 93.7686 32.972C93.7076 33.277 93.6466 33.46 93.5246 33.46C93.4026 33.521 93.3416 33.704 93.3416 33.948C93.4026 34.375 93.4636 34.375 93.7076 33.887ZM94.1956 31.874C94.3786 31.508 94.5616 31.081 94.5616 30.959C94.5006 30.593 94.5006 30.654 94.1346 31.752L93.8296 32.545L94.1956 31.874ZM94.5006 29.983C94.6836 29.678 94.7446 29.373 94.6226 29.312C94.5616 29.251 94.3786 29.495 94.2566 29.861C94.0736 30.715 94.1346 30.715 94.5006 29.983ZM94.5616 26.201C94.5616 26.323 94.6226 26.262 94.7446 26.079C94.8056 25.835 94.8666 25.53 94.8666 25.408C94.8666 25.286 94.8056 25.347 94.6836 25.53C94.6226 25.774 94.5616 26.079 94.5616 26.201ZM96.6966 21.748C96.9406 20.955 97.0016 20.284 96.9406 20.284C96.8186 20.345 96.0256 22.907 95.2326 26.14C95.0496 26.933 94.8666 27.97 94.8666 28.397C94.8056 29.251 94.8056 29.251 94.9886 28.641C95.1106 28.275 95.4156 26.872 95.7816 25.53C96.0866 24.188 96.5136 22.48 96.6966 21.748ZM97.4286 18.759C97.6116 18.271 97.6726 17.905 97.6116 17.905C97.4896 17.905 96.8186 19.613 96.8796 19.857C96.8796 19.979 96.9406 20.04 97.0626 20.04C97.1846 20.04 97.2456 19.918 97.2456 19.796C97.1846 19.735 97.3066 19.247 97.4286 18.759ZM98.5876 15.526C98.6486 15.282 98.6486 15.221 98.5266 15.282C98.4046 15.404 98.3436 15.587 98.3436 15.709C98.4046 16.136 98.5266 16.014 98.5876 15.526ZM98.8926 16.563C98.9536 16.319 98.8926 16.197 98.7706 16.319C98.7096 16.38 98.6486 16.563 98.6486 16.746C98.6486 17.112 98.8316 16.99 98.8926 16.563ZM98.8926 14.428C98.9536 14.245 98.9536 14.123 98.8316 14.245C98.7096 14.306 98.6486 14.489 98.6486 14.672C98.7096 15.038 98.8316 14.916 98.8926 14.428ZM99.1976 13.574C99.1976 13.696 99.3196 13.757 99.3806 13.635C99.5026 13.513 99.5636 13.391 99.5636 13.33C99.5636 13.269 99.5026 13.208 99.3806 13.269C99.2586 13.269 99.1976 13.391 99.1976 13.574ZM99.6856 14.367C99.8686 13.879 99.8686 13.818 99.6246 14.184C99.4416 14.428 99.2586 14.733 99.3196 14.916C99.3196 15.038 99.3196 15.099 99.3806 15.038C99.3806 14.977 99.5026 14.672 99.6856 14.367ZM106.701 58.836C106.701 59.995 106.884 61.398 107.067 61.398C107.067 61.398 107.006 60.544 106.945 59.507C106.762 57.921 106.762 57.799 106.701 58.836ZM105.664 30.715C105.603 30.471 105.603 30.654 105.603 31.203C105.664 31.63 105.725 31.874 105.786 31.569C105.786 31.386 105.725 30.959 105.664 30.715ZM105.664 32.789C105.542 32.728 105.542 32.85 105.542 33.155C105.603 33.46 105.664 33.521 105.725 33.277C105.725 33.094 105.725 32.85 105.664 32.789ZM105.725 34.985C105.542 33.338 105.481 33.46 105.42 35.29C105.481 36.144 105.542 36.571 105.603 36.51C105.725 36.388 105.786 35.717 105.725 34.985ZM102.675 38.889C102.614 38.828 102.553 38.95 102.614 39.255C102.614 39.56 102.675 39.56 102.736 39.377C102.797 39.194 102.736 38.95 102.675 38.889ZM102.614 40.475C102.553 40.231 102.553 40.475 102.553 41.024C102.614 41.634 102.675 41.817 102.736 41.451C102.736 41.146 102.675 40.658 102.614 40.475ZM102.736 44.562C102.797 44.379 102.797 44.135 102.736 43.952C102.614 43.769 102.614 43.952 102.614 44.257C102.675 44.623 102.736 44.745 102.736 44.562ZM103.285 30.044C103.041 30.837 103.041 35.961 103.224 37.303C103.407 38.767 103.712 38.767 103.712 37.242C103.651 36.571 103.59 36.022 103.468 35.961C103.407 35.9 103.407 35.534 103.468 35.107C103.529 34.68 103.468 33.582 103.468 32.667C103.346 31.691 103.346 30.593 103.346 30.227C103.407 29.617 103.407 29.617 103.285 30.044ZM103.285 55.42C103.346 55.237 103.285 54.993 103.224 54.932C103.163 54.871 103.102 54.993 103.163 55.298C103.163 55.603 103.224 55.603 103.285 55.42ZM103.712 60.727C103.773 60.422 103.712 60.117 103.651 59.934C103.59 59.751 103.59 59.995 103.59 60.422C103.651 60.849 103.712 60.971 103.712 60.727ZM105.054 71.097C105.054 70.731 104.993 70.304 104.932 70.06C104.871 69.816 104.871 70.06 104.871 70.609C104.932 71.219 104.993 71.402 105.054 71.097ZM105.42 72.988C105.42 72.744 105.359 72.317 105.298 72.073C105.237 71.829 105.237 72.073 105.237 72.561C105.298 73.049 105.359 73.232 105.42 72.988ZM111.398 90.8C112.069 91.227 112.313 91.227 112.252 90.861C112.252 90.739 112.191 90.617 112.069 90.617C111.947 90.678 111.825 90.495 111.764 90.251C111.703 90.007 111.154 88.665 110.666 87.323C109.812 85.005 108.104 78.173 107.128 73.476C105.847 67.193 104.505 50.967 104.505 41.329C104.505 40.719 104.383 38.706 104.322 36.815C104.017 31.996 103.834 33.704 104.017 39.255C104.2 44.196 103.956 46.27 103.712 41.817C103.59 39.804 103.529 39.438 103.529 40.292C103.468 40.902 103.468 42.122 103.529 42.854C103.59 43.647 103.59 44.806 103.529 45.477C103.346 47.124 103.346 47.978 103.956 56.701C104.444 63.655 105.176 70.304 105.847 73.903C105.969 74.635 105.969 74.818 105.786 74.391C105.481 73.72 105.481 74.025 106.03 76.343C106.335 77.502 106.579 78.661 106.64 78.966C106.823 80.613 109.202 87.994 109.751 88.543C109.812 88.604 109.812 88.421 109.812 88.055C109.751 87.567 109.873 87.628 110.117 88.421C110.605 89.58 110.605 89.58 110.3 89.458C110.178 89.336 110.178 89.458 110.239 89.702C110.422 90.068 110.483 90.007 110.544 89.763C110.666 89.519 110.727 89.519 110.788 89.946C110.788 90.19 111.093 90.617 111.398 90.8ZM112.74 91.105C112.801 91.044 112.862 90.983 112.74 90.8C112.679 90.678 112.618 90.556 112.557 90.556C112.496 90.617 112.435 90.739 112.496 90.861C112.496 90.983 112.618 91.105 112.74 91.105ZM122.622 55.908C122.683 56.762 123.11 52.553 122.988 51.577C122.927 51.028 122.866 51.577 122.744 53.041C122.622 54.322 122.561 55.603 122.622 55.908ZM123.781 43.403C123.72 43.098 123.72 42.915 123.659 42.915C123.598 42.915 123.537 43.159 123.476 43.464C123.476 43.708 123.537 43.952 123.598 43.952C123.72 43.952 123.781 43.708 123.781 43.403ZM123.903 40.841C123.903 40.658 123.903 40.414 123.842 40.353C123.72 40.292 123.72 40.414 123.72 40.719C123.781 41.024 123.842 41.024 123.903 40.841ZM124.208 37.181C124.208 36.937 124.208 36.754 124.147 36.693C124.086 36.571 124.025 36.754 124.086 37.059C124.086 37.303 124.147 37.364 124.208 37.181ZM124.33 34.314C124.391 34.131 124.391 33.826 124.269 33.643C124.208 33.46 124.208 33.643 124.208 34.009C124.269 34.375 124.33 34.497 124.33 34.314Z" fill="white"/>
</svg>
